<?xml version="1.0" encoding="UTF-8" standalone="no"?>
<svg
   xmlns:dc="http://purl.org/dc/elements/1.1/"
   xmlns:cc="http://creativecommons.org/ns#"
   xmlns:rdf="http://www.w3.org/1999/02/22-rdf-syntax-ns#"
   xmlns:svg="http://www.w3.org/2000/svg"
   xmlns="http://www.w3.org/2000/svg"
   xmlns:sodipodi="http://sodipodi.sourceforge.net/DTD/sodipodi-0.dtd"
   xmlns:inkscape="http://www.inkscape.org/namespaces/inkscape"
   version="1.2"
   width="177.8mm"
   height="55.88mm"
   viewBox="0 0 17780 5588"
   preserveAspectRatio="xMidYMid"
   fill-rule="evenodd"
   stroke-width="28.222"
   stroke-linejoin="round"
   xml:space="preserve"
   id="svg546"
   sodipodi:docname="mov1-4.svg"
   inkscape:version="0.92.5 (2060ec1f9f, 2020-04-08)"><metadata
   id="metadata550"><rdf:RDF><cc:Work
       rdf:about=""><dc:format>image/svg+xml</dc:format><dc:type
         rdf:resource="http://purl.org/dc/dcmitype/StillImage" /></cc:Work></rdf:RDF></metadata><sodipodi:namedview
   pagecolor="#ffffff"
   bordercolor="#666666"
   borderopacity="1"
   objecttolerance="10"
   gridtolerance="10"
   guidetolerance="10"
   inkscape:pageopacity="0"
   inkscape:pageshadow="2"
   inkscape:window-width="669"
   inkscape:window-height="480"
   id="namedview548"
   showgrid="false"
   inkscape:zoom="0.38839285"
   inkscape:cx="336.00001"
   inkscape:cy="105.6"
   inkscape:window-x="0"
   inkscape:window-y="0"
   inkscape:window-maximized="0"
   inkscape:current-layer="svg546" />
 <defs
   class="ClipPathGroup"
   id="defs8"><clipPath
     id="presentation_clip_path"
     clipPathUnits="userSpaceOnUse">
   <rect
   x="0"
   y="0"
   width="17780"
   height="5588"
   id="rect2" />
  </clipPath></defs>
 <defs
   id="defs87" />
 <defs
   id="defs126" />
 <defs
   class="TextShapeIndex"
   id="defs130" />
 <defs
   class="EmbeddedBulletChars"
   id="defs162" />
 <g
   id="g167">
  <g
   id="id2"
   class="Master_Slide">
   <g
   id="bg-id2"
   class="Background" />
   <g
   id="bo-id2"
   class="BackgroundObjects" />
  </g>
 </g>
 <g
   class="SlideGroup"
   id="g544">
  <g
   id="g542">
   <g
   id="container-id1">
    <g
   id="id1"
   class="Slide"
   clip-path="url(#presentation_clip_path)">
     <g
   class="Page"
   id="g538">
      <g
   class="com.sun.star.drawing.CustomShape"
   id="g176">
       <g
   id="id3">
        <rect
   class="BoundingBox"
   stroke="none"
   fill="none"
   x="3334"
   y="1091"
   width="1908"
   height="1019"
   id="rect169" />
        <path
   fill="rgb(232,242,161)"
   stroke="none"
   d="M 4287,1092 L 5240,1092 5240,2108 3335,2108 3335,1092 4287,1092 Z"
   id="path171" />
        <path
   fill="none"
   stroke="rgb(0,0,0)"
   d="M 4287,1092 L 5240,1092 5240,2108 3335,2108 3335,1092 4287,1092 Z"
   id="path173" />
       </g>
      </g>
      <g
   class="com.sun.star.drawing.CustomShape"
   id="g185">
       <g
   id="id4">
        <rect
   class="BoundingBox"
   stroke="none"
   fill="none"
   x="7110"
   y="1091"
   width="1908"
   height="1019"
   id="rect178" />
        <path
   fill="rgb(232,242,161)"
   stroke="none"
   d="M 8064,2108 L 7111,2108 7111,1092 9016,1092 9016,2108 8064,2108 Z"
   id="path180" />
        <path
   fill="none"
   stroke="rgb(0,0,0)"
   d="M 8064,2108 L 7111,2108 7111,1092 9016,1092 9016,2108 8064,2108 Z"
   id="path182" />
       </g>
      </g>
      <g
   class="com.sun.star.drawing.CustomShape"
   id="g206">
       <g
   id="id5">
        <rect
   class="BoundingBox"
   stroke="none"
   fill="none"
   x="3428"
   y="4444"
   width="3559"
   height="1019"
   id="rect187" />
        <path
   fill="rgb(255,235,238)"
   stroke="none"
   d="M 5207,5461 L 3429,5461 3429,4445 6985,4445 6985,5461 5207,5461 Z"
   id="path189" />
        <path
   fill="none"
   stroke="rgb(0,0,0)"
   d="M 5207,5461 L 3429,5461 3429,4445 6985,4445 6985,5461 5207,5461 Z"
   id="path191" />
        <text
   class="TextShape"
   id="text203"><tspan
     class="TextParagraph"
     font-family="Noto Sans, sans-serif"
     font-size="353px"
     font-weight="400"
     id="tspan201"><tspan
       class="TextPosition"
       x="3584"
       y="4851"
       id="tspan195"><tspan
         fill="rgb(0,0,0)"
         stroke="none"
         id="tspan193">address of machine </tspan></tspan><tspan
       class="TextPosition"
       x="3709"
       y="5330"
       id="tspan199"><tspan
         fill="rgb(0,0,0)"
         stroke="none"
         id="tspan197">code for this word</tspan></tspan></tspan></text>

       </g>
      </g>
      <g
   class="com.sun.star.drawing.CustomShape"
   id="g227">
       <g
   id="id6">
        <rect
   class="BoundingBox"
   stroke="none"
   fill="none"
   x="792"
   y="4444"
   width="2638"
   height="1019"
   id="rect208" />
        <path
   fill="rgb(255,253,231)"
   stroke="none"
   d="M 2111,5461 L 793,5461 793,4445 3428,4445 3428,5461 2111,5461 Z"
   id="path210" />
        <path
   fill="none"
   stroke="rgb(0,0,0)"
   d="M 2111,5461 L 793,5461 793,4445 3428,4445 3428,5461 2111,5461 Z"
   id="path212" />
        <text
   class="TextShape"
   id="text224"><tspan
     class="TextParagraph"
     font-family="Noto Sans, sans-serif"
     font-size="353px"
     font-weight="700"
     id="tspan222"><tspan
       class="TextPosition"
       x="879"
       y="5091"
       id="tspan220"><tspan
         font-weight="400"
         fill="rgb(0,0,0)"
         stroke="none"
         id="tspan214">6 </tspan><tspan
         fill="rgb(0,0,0)"
         stroke="none"
         id="tspan216">SQUARE</tspan><tspan
         font-weight="400"
         fill="rgb(0,0,0)"
         stroke="none"
         id="tspan218"> link </tspan></tspan></tspan></text>

       </g>
      </g>
      <g
   class="com.sun.star.drawing.CustomShape"
   id="g248">
       <g
   id="id7">
        <rect
   class="BoundingBox"
   stroke="none"
   fill="none"
   x="6984"
   y="4444"
   width="1781"
   height="1019"
   id="rect229" />
        <path
   fill="rgb(232,242,161)"
   stroke="none"
   d="M 7874,5461 L 6985,5461 6985,4445 8763,4445 8763,5461 7874,5461 Z"
   id="path231" />
        <path
   fill="none"
   stroke="rgb(255,0,0)"
   d="M 7874,5461 L 6985,5461 6985,4445 8763,4445 8763,5461 7874,5461 Z"
   id="path233" />
        <text
   class="TextShape"
   id="text245"><tspan
     class="TextParagraph"
     font-family="Noto Sans, sans-serif"
     font-size="353px"
     font-weight="400"
     id="tspan243"><tspan
       class="TextPosition"
       x="7119"
       y="4851"
       id="tspan237"><tspan
         fill="rgb(0,0,0)"
         stroke="none"
         id="tspan235">token for </tspan></tspan><tspan
       class="TextPosition"
       x="7502"
       y="5330"
       id="tspan241"><tspan
         font-weight="700"
         fill="rgb(0,0,0)"
         stroke="none"
         id="tspan239">DUP</tspan></tspan></tspan></text>

       </g>
      </g>
      <g
   class="com.sun.star.drawing.CustomShape"
   id="g271">
       <g
   id="id8">
        <rect
   class="BoundingBox"
   stroke="none"
   fill="none"
   x="8762"
   y="4444"
   width="1781"
   height="1019"
   id="rect250" />
        <path
   fill="rgb(232,242,161)"
   stroke="none"
   d="M 9652,5461 L 8763,5461 8763,4445 10541,4445 10541,5461 9652,5461 Z"
   id="path252" />
        <path
   fill="none"
   stroke="rgb(255,0,0)"
   d="M 9652,5461 L 8763,5461 8763,4445 10541,4445 10541,5461 9652,5461 Z"
   id="path254" />
        <text
   class="TextShape"
   id="text268"><tspan
     class="TextParagraph"
     font-family="Noto Sans, sans-serif"
     font-size="353px"
     font-weight="400"
     id="tspan260"><tspan
       class="TextPosition"
       x="8897"
       y="4851"
       id="tspan258"><tspan
         fill="rgb(0,0,0)"
         stroke="none"
         id="tspan256">token for</tspan></tspan></tspan><tspan
     class="TextParagraph"
     font-family="Noto Sans, sans-serif"
     font-size="353px"
     font-weight="700"
     id="tspan266"><tspan
       class="TextPosition"
       x="9557"
       y="5330"
       id="tspan264"><tspan
         fill="rgb(0,0,0)"
         stroke="none"
         id="tspan262">*</tspan></tspan></tspan></text>

       </g>
      </g>
      <g
   class="com.sun.star.drawing.CustomShape"
   id="g292">
       <g
   id="id9">
        <rect
   class="BoundingBox"
   stroke="none"
   fill="none"
   x="10540"
   y="4444"
   width="1781"
   height="1019"
   id="rect273" />
        <path
   fill="rgb(232,242,161)"
   stroke="none"
   d="M 11430,5461 L 10541,5461 10541,4445 12319,4445 12319,5461 11430,5461 Z"
   id="path275" />
        <path
   fill="none"
   stroke="rgb(255,0,0)"
   d="M 11430,5461 L 10541,5461 10541,4445 12319,4445 12319,5461 11430,5461 Z"
   id="path277" />
        <text
   class="TextShape"
   id="text289"><tspan
     class="TextParagraph"
     font-family="Noto Sans, sans-serif"
     font-size="353px"
     font-weight="400"
     id="tspan287"><tspan
       class="TextPosition"
       x="10675"
       y="4851"
       id="tspan281"><tspan
         fill="rgb(0,0,0)"
         stroke="none"
         id="tspan279">token for </tspan></tspan><tspan
       class="TextPosition"
       x="11047"
       y="5330"
       id="tspan285"><tspan
         font-weight="700"
         fill="rgb(0,0,0)"
         stroke="none"
         id="tspan283">EXIT</tspan></tspan></tspan></text>

       </g>
      </g>
      <g
   class="com.sun.star.drawing.TextShape"
   id="g313">
       <g
   id="id10">
        <rect
   class="BoundingBox"
   stroke="none"
   fill="none"
   x="0"
   y="-85"
   width="3430"
   height="1060"
   id="rect294" />
        <text
   class="TextShape"
   id="text310"><tspan
     class="TextParagraph"
     font-family="Noto Sans, sans-serif"
     font-size="353px"
     font-weight="400"
     id="tspan300"><tspan
       class="TextPosition"
       x="207"
       y="343"
       id="tspan298"><tspan
         fill="rgb(128,0,128)"
         stroke="none"
         id="tspan296">some Forth word</tspan></tspan></tspan><tspan
     class="TextParagraph"
     font-family="Noto Sans, sans-serif"
     font-size="353px"
     font-weight="400"
     id="tspan308"><tspan
       class="TextPosition"
       x="207"
       y="822"
       id="tspan306"><tspan
         fill="rgb(128,0,128)"
         stroke="none"
         id="tspan302">that uses </tspan><tspan
         font-weight="700"
         fill="rgb(128,0,128)"
         stroke="none"
         id="tspan304">SQUARE</tspan></tspan></tspan></text>

       </g>
      </g>
      <g
   class="com.sun.star.drawing.TextShape"
   id="g338">
       <g
   id="id11">
        <rect
   class="BoundingBox"
   stroke="none"
   fill="none"
   x="100"
   y="3251"
   width="3203"
   height="1060"
   id="rect315" />
        <text
   class="TextShape"
   id="text335"><tspan
     class="TextParagraph"
     font-family="Noto Sans, sans-serif"
     font-size="353px"
     font-weight="700"
     id="tspan323"><tspan
       class="TextPosition"
       x="244"
       y="3679"
       id="tspan321"><tspan
         fill="rgb(128,0,128)"
         stroke="none"
         id="tspan317">SQUARE</tspan><tspan
         font-weight="400"
         fill="rgb(128,0,128)"
         stroke="none"
         id="tspan319">,</tspan></tspan></tspan><tspan
     class="TextParagraph"
     font-family="Noto Sans, sans-serif"
     font-size="353px"
     font-weight="700"
     id="tspan333"><tspan
       class="TextPosition"
       x="244"
       y="4158"
       id="tspan331"><tspan
         font-weight="400"
         fill="rgb(128,0,128)"
         stroke="none"
         id="tspan325">a </tspan><tspan
         fill="rgb(255,0,0)"
         stroke="none"
         id="tspan327">colon</tspan><tspan
         font-weight="400"
         fill="rgb(128,0,128)"
         stroke="none"
         id="tspan329"> definition</tspan></tspan></tspan></text>

       </g>
      </g>
      <g
   class="com.sun.star.drawing.PolyPolygonShape"
   id="g347">
       <g
   id="id12">
        <rect
   class="BoundingBox"
   stroke="none"
   fill="none"
   x="9016"
   y="1091"
   width="2543"
   height="1019"
   id="rect340" />
        <path
   fill="rgb(232,242,161)"
   stroke="none"
   d="M 9017,1092 L 11303,1092 11303,1346 11049,1473 11557,1600 11303,1727 11303,2108 9017,2108 9017,1092 Z"
   id="path342" />
        <path
   fill="none"
   stroke="rgb(222,230,239)"
   d="M 9017,1092 L 11303,1092 11303,1346 11049,1473 11557,1600 11303,1727 11303,2108 9017,2108 9017,1092 Z"
   id="path344" />
       </g>
      </g>
      <g
   class="com.sun.star.drawing.PolyLineShape"
   id="g354">
       <g
   id="id13">
        <rect
   class="BoundingBox"
   stroke="none"
   fill="none"
   x="9016"
   y="1091"
   width="2289"
   height="1019"
   id="rect349" />
        <path
   fill="none"
   stroke="rgb(0,0,0)"
   d="M 11303,1092 L 9017,1092 9017,2108 11303,2108"
   id="path351" />
       </g>
      </g>
      <g
   class="com.sun.star.drawing.TextShape"
   id="g367">
       <g
   id="id14">
        <rect
   class="BoundingBox"
   stroke="none"
   fill="none"
   x="9652"
   y="1251"
   width="890"
   height="731"
   id="rect356" />
        <text
   class="TextShape"
   id="text364"><tspan
     class="TextParagraph"
     font-family="Noto Sans, sans-serif"
     font-size="353px"
     font-weight="400"
     id="tspan362"><tspan
       class="TextPosition"
       x="9902"
       y="1753"
       id="tspan360"><tspan
         fill="rgb(0,0,0)"
         stroke="none"
         id="tspan358">...</tspan></tspan></tspan></text>

       </g>
      </g>
      <g
   class="com.sun.star.drawing.PolyPolygonShape"
   id="g376">
       <g
   id="id15">
        <rect
   class="BoundingBox"
   stroke="none"
   fill="none"
   x="795"
   y="1091"
   width="2543"
   height="1019"
   id="rect369" />
        <path
   fill="rgb(232,242,161)"
   stroke="none"
   d="M 3336,2108 L 1050,2108 1050,1727 1304,1600 796,1473 1050,1346 1050,1092 3336,1092 3336,2108 Z"
   id="path371" />
        <path
   fill="none"
   stroke="rgb(222,230,239)"
   d="M 3336,2108 L 1050,2108 1050,1727 1304,1600 796,1473 1050,1346 1050,1092 3336,1092 3336,2108 Z"
   id="path373" />
       </g>
      </g>
      <g
   class="com.sun.star.drawing.PolyLineShape"
   id="g383">
       <g
   id="id16">
        <rect
   class="BoundingBox"
   stroke="none"
   fill="none"
   x="1049"
   y="1091"
   width="2289"
   height="1019"
   id="rect378" />
        <path
   fill="none"
   stroke="rgb(0,0,0)"
   d="M 1050,1092 L 3336,1092 3336,2108 1050,2108"
   id="path380" />
       </g>
      </g>
      <g
   class="com.sun.star.drawing.TextShape"
   id="g396">
       <g
   id="id17">
        <rect
   class="BoundingBox"
   stroke="none"
   fill="none"
   x="1812"
   y="1251"
   width="871"
   height="731"
   id="rect385" />
        <text
   class="TextShape"
   id="text393"><tspan
     class="TextParagraph"
     font-family="Noto Sans, sans-serif"
     font-size="353px"
     font-weight="400"
     id="tspan391"><tspan
       class="TextPosition"
       x="2062"
       y="1753"
       id="tspan389"><tspan
         fill="rgb(0,0,0)"
         stroke="none"
         id="tspan387">...</tspan></tspan></tspan></text>

       </g>
      </g>
      <g
   class="com.sun.star.drawing.CustomShape"
   id="g413">
       <g
   id="id18">
        <rect
   class="BoundingBox"
   stroke="none"
   fill="none"
   x="13715"
   y="3935"
   width="3559"
   height="638"
   id="rect398" />
        <path
   fill="rgb(227,242,253)"
   stroke="none"
   d="M 15494,4571 L 13716,4571 13716,3936 17272,3936 17272,4571 15494,4571 Z"
   id="path400" />
        <path
   fill="none"
   stroke="rgb(0,0,0)"
   d="M 15494,4571 L 13716,4571 13716,3936 17272,3936 17272,4571 15494,4571 Z"
   id="path402" />
        <text
   class="TextShape"
   id="text410"><tspan
     class="TextParagraph"
     font-family="Noto Sans, sans-serif"
     font-size="353px"
     font-weight="400"
     id="tspan408"><tspan
       class="TextPosition"
       x="14216"
       y="4391"
       id="tspan406"><tspan
         fill="rgb(0,0,0)"
         stroke="none"
         id="tspan404">address of DUP</tspan></tspan></tspan></text>

       </g>
      </g>
      <g
   class="com.sun.star.drawing.CustomShape"
   id="g428">
       <g
   id="id19">
        <rect
   class="BoundingBox"
   stroke="none"
   fill="none"
   x="13716"
   y="4571"
   width="3557"
   height="636"
   id="rect415" />
        <path
   fill="rgb(227,242,253)"
   stroke="none"
   d="M 15494,5206 L 13716,5206 13716,4571 17272,4571 17272,5206 15494,5206 Z"
   id="path417" />
        <text
   class="TextShape"
   id="text425"><tspan
     class="TextParagraph"
     font-family="Noto Sans, sans-serif"
     font-size="353px"
     font-weight="400"
     id="tspan423"><tspan
       class="TextPosition"
       x="15200"
       y="5026"
       id="tspan421"><tspan
         fill="rgb(0,0,0)"
         stroke="none"
         id="tspan419">etc.</tspan></tspan></tspan></text>

       </g>
      </g>
      <g
   class="com.sun.star.drawing.CustomShape"
   id="g445">
       <g
   id="id20">
        <rect
   class="BoundingBox"
   stroke="none"
   fill="none"
   x="13715"
   y="2665"
   width="3559"
   height="638"
   id="rect430" />
        <path
   fill="rgb(227,242,253)"
   stroke="none"
   d="M 15494,3301 L 13716,3301 13716,2666 17272,2666 17272,3301 15494,3301 Z"
   id="path432" />
        <path
   fill="none"
   stroke="rgb(0,0,0)"
   d="M 15494,3301 L 13716,3301 13716,2666 17272,2666 17272,3301 15494,3301 Z"
   id="path434" />
        <text
   class="TextShape"
   id="text442"><tspan
     class="TextParagraph"
     font-family="Noto Sans, sans-serif"
     font-size="353px"
     font-weight="400"
     id="tspan440"><tspan
       class="TextPosition"
       x="13898"
       y="3121"
       id="tspan438"><tspan
         fill="rgb(0,0,0)"
         stroke="none"
         id="tspan436">address of SQUARE</tspan></tspan></tspan></text>

       </g>
      </g>
      <g
   class="com.sun.star.drawing.CustomShape"
   id="g454">
       <g
   id="id21">
        <rect
   class="BoundingBox"
   stroke="none"
   fill="none"
   x="13715"
   y="3300"
   width="3559"
   height="638"
   id="rect447" />
        <path
   fill="rgb(227,242,253)"
   stroke="none"
   d="M 15494,3936 L 13716,3936 13716,3301 17272,3301 17272,3936 15494,3936 Z"
   id="path449" />
        <path
   fill="none"
   stroke="rgb(0,0,0)"
   d="M 15494,3936 L 13716,3936 13716,3301 17272,3301 17272,3936 15494,3936 Z"
   id="path451" />
       </g>
      </g>
      <g
   class="com.sun.star.drawing.PolyLineShape"
   id="g461">
       <g
   id="id22">
        <rect
   class="BoundingBox"
   stroke="none"
   fill="none"
   x="13715"
   y="4571"
   width="3559"
   height="638"
   id="rect456" />
        <path
   fill="none"
   stroke="rgb(0,0,0)"
   d="M 17272,5207 L 17272,4572 13716,4572 13716,5207"
   id="path458" />
       </g>
      </g>
      <g
   class="com.sun.star.drawing.CustomShape"
   id="g470">
       <g
   id="id23">
        <rect
   class="BoundingBox"
   stroke="none"
   fill="none"
   x="13715"
   y="2030"
   width="3559"
   height="638"
   id="rect463" />
        <path
   fill="rgb(227,242,253)"
   stroke="none"
   d="M 15494,2666 L 13716,2666 13716,2031 17272,2031 17272,2666 15494,2666 Z"
   id="path465" />
        <path
   fill="none"
   stroke="rgb(0,0,0)"
   d="M 15494,2666 L 13716,2666 13716,2031 17272,2031 17272,2666 15494,2666 Z"
   id="path467" />
       </g>
      </g>
      <g
   class="com.sun.star.drawing.CustomShape"
   id="g477">
       <g
   id="id24">
        <rect
   class="BoundingBox"
   stroke="none"
   fill="none"
   x="13716"
   y="1396"
   width="3557"
   height="636"
   id="rect472" />
        <path
   fill="rgb(227,242,253)"
   stroke="none"
   d="M 15494,2031 L 13716,2031 13716,1396 17272,1396 17272,2031 15494,2031 Z"
   id="path474" />
       </g>
      </g>
      <g
   class="com.sun.star.drawing.PolyLineShape"
   id="g484">
       <g
   id="id25">
        <rect
   class="BoundingBox"
   stroke="none"
   fill="none"
   x="13715"
   y="1396"
   width="3559"
   height="638"
   id="rect479" />
        <path
   fill="none"
   stroke="rgb(0,0,0)"
   d="M 13716,1397 L 13716,2032 17272,2032 17272,1397"
   id="path481" />
       </g>
      </g>
      <g
   class="com.sun.star.drawing.TextShape"
   id="g497">
       <g
   id="id26">
        <rect
   class="BoundingBox"
   stroke="none"
   fill="none"
   x="13944"
   y="414"
   width="3075"
   height="1060"
   id="rect486" />
        <text
   class="TextShape"
   id="text494"><tspan
     class="TextParagraph"
     font-family="Noto Sans, sans-serif"
     font-size="353px"
     font-weight="400"
     id="tspan492"><tspan
       class="TextPosition"
       x="14365"
       y="1081"
       id="tspan490"><tspan
         fill="rgb(128,0,128)"
         stroke="none"
         id="tspan488">TOKEN TABLE</tspan></tspan></tspan></text>

       </g>
      </g>
      <g
   class="com.sun.star.drawing.LineShape"
   id="g506">
       <g
   id="id27">
        <rect
   class="BoundingBox"
   stroke="none"
   fill="none"
   x="5207"
   y="3124"
   width="10085"
   height="1462"
   id="rect499" />
        <path
   fill="none"
   stroke="rgb(0,169,51)"
   stroke-width="102"
   stroke-linejoin="round"
   d="M 15240,3175 L 5850,4364"
   id="path501" />
        <path
   fill="rgb(0,169,51)"
   stroke="none"
   d="M 5207,4445 L 5908,4584 5851,4136 5207,4445 Z"
   id="path503" />
       </g>
      </g>
      <g
   class="com.sun.star.drawing.CustomShape"
   id="g527">
       <g
   id="id28">
        <rect
   class="BoundingBox"
   stroke="none"
   fill="none"
   x="5249"
   y="1091"
   width="1853"
   height="1019"
   id="rect508" />
        <path
   fill="rgb(232,242,161)"
   stroke="none"
   d="M 6175,2108 L 5250,2108 5250,1092 7100,1092 7100,2108 6175,2108 Z"
   id="path510" />
        <path
   fill="none"
   stroke="rgb(255,0,0)"
   d="M 6175,2108 L 5250,2108 5250,1092 7100,1092 7100,2108 6175,2108 Z"
   id="path512" />
        <text
   class="TextShape"
   id="text524"><tspan
     class="TextParagraph"
     font-family="Noto Sans, sans-serif"
     font-size="353px"
     font-weight="400"
     id="tspan522"><tspan
       class="TextPosition"
       x="5420"
       y="1498"
       id="tspan516"><tspan
         fill="rgb(0,0,0)"
         stroke="none"
         id="tspan514">token for </tspan></tspan><tspan
       class="TextPosition"
       x="5473"
       y="1977"
       id="tspan520"><tspan
         font-weight="700"
         fill="rgb(0,0,0)"
         stroke="none"
         id="tspan518">SQUARE</tspan></tspan></tspan></text>

       </g>
      </g>
      <g
   class="com.sun.star.drawing.LineShape"
   id="g536">
       <g
   id="id29">
        <rect
   class="BoundingBox"
   stroke="none"
   fill="none"
   x="6173"
   y="2058"
   width="7544"
   height="900"
   id="rect529" />
        <path
   fill="none"
   stroke="rgb(0,169,51)"
   stroke-width="100"
   stroke-linejoin="round"
   d="M 6223,2108 L 13074,2735"
   id="path531" />
        <path
   fill="rgb(0,169,51)"
   stroke="none"
   d="M 13716,2794 L 13064,2508 13023,2957 13716,2794 Z"
   id="path533" />
       </g>
      </g>
     </g>
    </g>
   </g>
  </g>
 </g>
</svg>